<?xml version="1.0" standalone="no"?>
<!DOCTYPE svg PUBLIC "-//W3C//DTD SVG 20010904//EN"
 "http://www.w3.org/TR/2001/REC-SVG-20010904/DTD/svg10.dtd">
<svg version="1.0" xmlns="http://www.w3.org/2000/svg"
 width="120.000000pt" height="120.000000pt" viewBox="0 0 120.000000 120.000000"
 preserveAspectRatio="xMidYMid meet">

<g transform="translate(0.000000,120.000000) scale(0.100000,-0.100000)"
fill="#000000" stroke="none">
<path d="M538 1131 c-74 -24 -130 -80 -171 -169 -17 -37 -21 -66 -21 -132 1
-92 17 -149 61 -212 28 -42 106 -98 135 -98 21 0 22 -7 3 -40 -18 -32 -19 -50
-1 -50 10 0 12 -11 9 -43 -5 -44 17 -107 37 -107 6 0 24 -19 41 -43 31 -42 33
-66 18 -151 -7 -37 19 -26 35 16 25 60 14 97 -49 175 -36 45 -55 77 -55 95 0
29 34 68 59 68 9 0 22 4 30 9 12 8 12 13 -2 35 -22 33 -22 33 18 46 49 16 129
108 151 172 22 65 22 185 0 246 -23 63 -75 131 -123 159 -46 27 -130 38 -175
24z m182 -91 c0 -5 -7 -10 -15 -10 -8 0 -15 5 -15 10 0 6 7 10 15 10 8 0 15
-4 15 -10z m66 -66 c33 -56 45 -134 20 -134 -11 0 -16 9 -16 28 0 30 -32 106
-49 116 -16 10 -13 36 4 36 8 0 26 -21 41 -46z m-362 -248 c3 -14 18 -38 32
-55 32 -39 22 -62 -13 -29 -24 22 -53 75 -53 98 0 21 28 9 34 -14z m86 -117
c0 -5 -7 -9 -15 -9 -15 0 -20 12 -9 23 8 8 24 -1 24 -14z"/>
</g>
</svg>
